<svg id="svg" version="1.1" width="1024" height="1024" viewBox="0 0 1024 1024" xmlns="http://www.w3.org/2000/svg"><path d="M0.000 512.000 L 0.000 1024.000 512.000 1024.000 L 1024.000 1024.000 1024.000 512.000 L 1024.000 0.000 512.000 0.000 L 0.000 0.000 0.000 512.000 M569.192 359.750 L 569.500 395.500 572.310 401.224 C 575.564 407.852,581.270 413.144,587.867 415.654 C 591.894 417.187,596.919 417.457,626.265 417.723 L 660.030 418.028 660.008 545.796 C 659.995 616.069,659.595 674.926,659.117 676.591 C 656.825 684.583,650.584 691.540,642.508 695.104 C 638.370 696.931,635.078 697.390,623.258 697.792 L 609.000 698.276 609.000 692.737 C 609.000 687.483,609.177 687.093,612.446 685.164 C 617.249 682.330,620.364 675.926,619.720 670.210 C 618.788 661.943,612.746 656.500,604.500 656.500 C 598.482 656.500,595.013 658.461,591.250 663.990 C 586.785 670.550,589.156 680.906,596.015 684.808 C 598.712 686.344,598.988 686.981,598.994 691.705 C 599.000 696.790,598.925 696.923,595.750 697.503 C 593.962 697.829,586.875 697.962,580.000 697.798 L 567.500 697.500 567.232 672.530 L 566.964 647.560 575.732 639.290 L 584.500 631.020 590.000 631.010 C 595.090 631.001,595.708 631.260,598.288 634.494 C 602.291 639.511,606.324 641.319,612.240 640.751 C 627.085 639.325,631.461 620.672,618.946 612.164 C 616.118 610.242,614.552 609.898,610.209 610.247 C 604.335 610.718,600.610 612.931,597.500 617.795 C 595.538 620.864,595.350 620.924,587.516 620.961 L 579.531 621.000 568.266 632.234 L 557.000 643.467 556.996 670.484 L 556.992 697.500 548.496 697.597 L 540.000 697.694 540.000 662.543 L 540.000 627.393 559.250 608.203 L 578.500 589.014 588.500 589.013 L 598.500 589.013 600.192 591.985 C 602.166 595.456,607.139 598.737,611.742 599.607 C 615.708 600.356,623.467 596.782,626.271 592.913 C 628.399 589.979,629.559 583.363,628.609 579.579 C 627.657 575.786,622.367 570.276,618.429 568.977 C 612.650 567.069,607.353 568.595,602.336 573.611 L 597.947 578.000 586.275 578.000 L 574.602 578.000 552.301 600.221 L 530.000 622.441 530.000 659.565 L 530.000 696.689 515.883 697.331 C 508.118 697.684,501.350 697.716,500.841 697.402 C 500.292 697.062,500.072 682.434,500.299 661.332 L 500.681 625.833 526.341 600.159 L 552.000 574.486 552.000 553.439 L 552.000 532.392 555.420 529.077 C 558.760 525.840,558.954 525.787,563.670 526.821 C 566.327 527.403,570.188 528.152,572.250 528.485 C 574.476 528.845,576.000 529.651,576.000 530.469 C 576.000 533.031,581.031 537.846,585.485 539.548 C 595.684 543.443,606.006 536.021,605.996 524.800 C 605.984 510.745,588.923 504.476,579.000 514.881 L 575.500 518.551 569.250 517.636 L 563.000 516.721 563.000 506.360 C 563.000 498.159,563.291 496.000,564.396 496.000 C 566.297 496.000,571.822 489.556,572.609 486.422 C 573.920 481.196,572.405 475.013,568.935 471.433 C 563.181 465.496,556.343 464.662,549.192 469.024 C 545.708 471.149,542.060 477.717,542.022 481.934 C 541.987 485.766,545.888 492.821,549.087 494.710 L 552.000 496.431 552.000 507.622 L 552.000 518.814 547.000 523.000 L 542.000 527.186 542.000 548.484 L 542.000 569.782 521.750 589.834 L 501.500 609.886 500.962 593.693 L 500.423 577.500 513.229 565.000 L 526.034 552.500 526.056 516.500 L 526.077 480.500 529.251 478.500 C 542.489 470.159,537.362 450.000,522.002 450.000 C 506.356 450.000,500.305 468.772,512.940 478.114 L 516.000 480.376 516.000 513.963 L 516.000 547.550 508.726 554.775 C 504.726 558.749,501.239 561.999,500.976 561.998 C 500.714 561.996,500.500 558.626,500.500 554.507 L 500.500 547.019 484.011 530.510 L 467.523 514.000 450.287 514.000 L 433.051 514.000 431.562 511.119 C 425.621 499.631,410.154 499.584,404.104 511.035 C 400.674 517.527,401.669 523.669,407.016 529.016 C 413.824 535.824,422.678 535.419,429.388 527.993 L 432.995 524.000 448.056 524.000 L 463.118 524.000 476.518 537.750 L 489.918 551.500 489.910 572.000 L 489.903 592.500 469.202 571.228 L 448.500 549.957 438.763 549.978 L 429.025 550.000 426.615 546.182 C 420.565 536.599,409.820 535.432,401.993 543.508 C 399.129 546.462,398.569 547.834,398.226 552.739 C 397.890 557.548,398.210 559.063,400.161 561.908 C 403.909 567.369,407.344 569.385,412.906 569.385 C 418.419 569.385,425.345 565.638,426.488 562.038 C 427.071 560.202,427.960 560.000,435.483 560.000 L 443.832 560.000 466.916 583.716 L 490.000 607.431 490.000 652.216 L 490.000 697.000 481.000 697.000 L 472.000 697.000 472.000 671.912 L 472.000 646.823 462.000 636.205 L 452.000 625.588 452.000 612.687 L 452.000 599.787 444.831 592.393 L 437.662 585.000 420.558 585.000 L 403.455 585.000 401.644 581.637 C 399.453 577.568,393.463 574.000,388.825 574.000 C 386.954 574.000,383.745 574.855,381.695 575.900 L 377.968 577.801 378.234 461.650 L 378.500 345.500 381.157 340.500 C 383.869 335.395,387.369 331.610,392.224 328.532 C 399.133 324.150,399.408 324.137,486.192 324.067 L 568.885 324.000 569.192 359.750 M617.500 370.000 L 654.490 407.000 624.457 407.000 C 595.298 407.000,594.294 406.935,589.970 404.750 C 585.139 402.309,581.599 397.818,580.016 392.118 C 578.856 387.942,578.614 333.000,579.755 333.000 C 580.170 333.000,597.156 349.650,617.500 370.000 M415.571 379.571 C 413.316 381.827,413.630 385.628,416.223 387.443 C 418.166 388.804,425.067 389.000,471.157 389.000 C 501.743 389.000,524.911 388.604,526.349 388.057 C 529.641 386.806,530.588 383.547,528.560 380.451 L 526.954 378.000 472.048 378.000 C 423.468 378.000,416.962 378.181,415.571 379.571 M415.571 410.571 C 413.706 412.436,413.517 416.117,415.200 417.800 C 416.104 418.704,430.017 419.000,471.677 419.000 L 526.954 419.000 528.592 416.500 C 530.109 414.184,530.109 413.816,528.592 411.500 L 526.954 409.000 472.048 409.000 C 423.468 409.000,416.962 409.181,415.571 410.571 M525.171 461.655 C 529.499 465.571,524.809 472.601,519.487 470.176 C 516.213 468.684,515.224 464.515,517.536 461.960 C 519.704 459.565,522.728 459.444,525.171 461.655 M479.475 477.060 C 477.811 477.545,475.040 479.416,473.316 481.220 C 465.676 489.216,467.660 501.236,477.399 505.951 C 482.813 508.572,485.521 508.532,491.038 505.750 C 502.593 499.923,502.328 483.232,490.595 477.904 C 486.130 475.876,484.080 475.721,479.475 477.060 M560.777 477.557 C 563.226 479.272,563.789 483.811,561.800 485.800 C 558.101 489.499,550.522 484.630,552.941 480.110 C 553.913 478.295,556.636 476.111,558.027 476.030 C 558.318 476.014,559.555 476.701,560.777 477.557 M488.548 489.433 C 490.385 492.237,489.357 495.203,485.910 497.048 C 481.371 499.477,476.489 491.911,480.200 488.200 C 482.293 486.107,486.806 486.774,488.548 489.433 M421.965 514.934 C 423.678 518.136,423.145 520.859,420.459 522.619 C 415.315 525.989,409.439 519.488,413.536 514.960 C 415.850 512.404,420.603 512.389,421.965 514.934 M594.965 521.934 C 596.678 525.136,596.145 527.859,593.459 529.619 C 588.315 532.989,582.439 526.488,586.536 521.960 C 588.850 519.404,593.603 519.389,594.965 521.934 M416.363 549.506 C 418.921 552.063,419.333 554.974,417.435 557.072 C 415.479 559.233,411.027 559.627,409.200 557.800 C 407.211 555.811,407.774 551.272,410.223 549.557 C 413.007 547.606,414.451 547.594,416.363 549.506 M618.182 581.500 C 620.045 585.589,617.915 589.000,613.500 589.000 C 610.691 589.000,609.721 588.482,608.818 586.500 C 606.955 582.411,609.085 579.000,613.500 579.000 C 616.309 579.000,617.279 579.518,618.182 581.500 M392.000 586.000 C 394.433 588.433,394.544 590.741,392.345 593.171 C 390.466 595.248,385.993 595.593,384.200 593.800 C 382.211 591.811,382.774 587.272,385.223 585.557 C 388.160 583.499,389.593 583.593,392.000 586.000 M437.500 599.660 L 442.073 604.365 441.936 617.273 L 441.799 630.182 451.649 640.341 L 461.500 650.500 461.215 673.623 L 460.930 696.746 453.715 695.369 C 449.747 694.612,445.150 693.625,443.500 693.176 L 440.500 692.360 440.000 672.692 L 439.500 653.025 427.015 640.512 L 414.530 628.000 397.868 628.000 L 381.205 628.000 380.055 621.397 C 379.423 617.765,378.632 611.867,378.298 608.291 L 377.691 601.789 381.096 603.556 C 388.115 607.199,397.350 604.911,401.070 598.607 L 402.998 595.338 417.963 595.147 L 432.928 594.956 437.500 599.660 M614.066 621.035 C 616.447 622.310,616.658 627.199,614.429 629.429 C 610.979 632.879,605.750 630.512,605.750 625.500 C 605.750 620.710,609.598 618.644,614.066 621.035 M420.297 648.796 L 430.056 658.592 429.778 673.290 L 429.500 687.989 423.297 684.244 C 419.885 682.185,413.853 677.800,409.892 674.500 L 402.691 668.500 408.694 668.000 C 415.393 667.442,418.000 665.883,418.000 662.434 C 418.000 658.323,414.562 657.000,403.879 657.000 L 394.202 657.000 389.554 648.000 L 384.906 639.000 397.722 639.000 L 410.538 639.000 420.297 648.796 M608.750 668.792 C 611.628 672.453,608.977 677.000,603.964 677.000 C 599.042 677.000,597.130 670.423,601.219 667.559 C 603.683 665.833,606.829 666.348,608.750 668.792 " stroke="none" fill="black" fill-rule="evenodd"/></svg>